<?xml version="1.0" encoding="us-ascii" standalone="no"?><svg xmlns="http://www.w3.org/2000/svg" xmlns:xlink="http://www.w3.org/1999/xlink" contentStyleType="text/css" height="916px" preserveAspectRatio="none" style="width:2960px;height:916px;background:#FFFFFF;" version="1.1" viewBox="0 0 2960 916" width="2960px" zoomAndPan="magnify"><defs/><g><!--cluster 54afc4697cf03d8e3ec9a05b16380622--><g id="cluster_54afc4697cf03d8e3ec9a05b16380622"><polygon fill="none" points="16,16,26,6,1390,6,1390,354.97,1380,364.97,16,364.97,16,16" style="stroke:#181818;stroke-width:1.0;"/><line style="stroke:#181818;stroke-width:1.0;" x1="1380" x2="1390" y1="16" y2="6"/><line style="stroke:#181818;stroke-width:1.0;" x1="16" x2="1380" y1="16" y2="16"/><line style="stroke:#181818;stroke-width:1.0;" x1="1380" x2="1380" y1="16" y2="364.97"/><text fill="#000000" font-family="sans-serif" font-size="14" font-weight="bold" lengthAdjust="spacing" textLength="29" x="684.5" y="31.9951">Sns</text></g><!--cluster 6ebb7423072c5943f52c11274fd71b0b--><g id="cluster_6ebb7423072c5943f52c11274fd71b0b"><polygon fill="none" points="824,398.97,834,388.97,1267,388.97,1267,889.42,1257,899.42,824,899.42,824,398.97" style="stroke:#181818;stroke-width:1.0;"/><line style="stroke:#181818;stroke-width:1.0;" x1="1257" x2="1267" y1="398.97" y2="388.97"/><line style="stroke:#181818;stroke-width:1.0;" x1="824" x2="1257" y1="398.97" y2="398.97"/><line style="stroke:#181818;stroke-width:1.0;" x1="1257" x2="1257" y1="398.97" y2="899.42"/><text fill="#000000" font-family="sans-serif" font-size="14" font-weight="bold" lengthAdjust="spacing" textLength="83" x="1000" y="414.9651">Dynamodb</text></g><!--cluster ba39a5f0aa547715c4df694144393752--><g id="cluster_ba39a5f0aa547715c4df694144393752"><polygon fill="none" points="1414,16,1424,6,1826,6,1826,163.48,1816,173.48,1414,173.48,1414,16" style="stroke:#181818;stroke-width:1.0;"/><line style="stroke:#181818;stroke-width:1.0;" x1="1816" x2="1826" y1="16" y2="6"/><line style="stroke:#181818;stroke-width:1.0;" x1="1414" x2="1816" y1="16" y2="16"/><line style="stroke:#181818;stroke-width:1.0;" x1="1816" x2="1816" y1="16" y2="173.48"/><text fill="#000000" font-family="sans-serif" font-size="14" font-weight="bold" lengthAdjust="spacing" textLength="92" x="1570" y="31.9951">Apigateway</text></g><!--cluster ef4ba2f338cdf4b615ed280ff0b2777d--><g id="cluster_ef4ba2f338cdf4b615ed280ff0b2777d"><polygon fill="none" points="1850,16,1860,6,2615,6,2615,163.48,2605,173.48,1850,173.48,1850,16" style="stroke:#181818;stroke-width:1.0;"/><line style="stroke:#181818;stroke-width:1.0;" x1="2605" x2="2615" y1="16" y2="6"/><line style="stroke:#181818;stroke-width:1.0;" x1="1850" x2="2605" y1="16" y2="16"/><line style="stroke:#181818;stroke-width:1.0;" x1="2605" x2="2605" y1="16" y2="173.48"/><text fill="#000000" font-family="sans-serif" font-size="14" font-weight="bold" lengthAdjust="spacing" textLength="29" x="2214" y="31.9951">Sqs</text></g><!--cluster 04a7da3c5b04cad85da1eebb92315b8b--><g id="cluster_04a7da3c5b04cad85da1eebb92315b8b"><polygon fill="none" points="1518,207.48,1528,197.48,2943,197.48,2943,354.97,2933,364.97,1518,364.97,1518,207.48" style="stroke:#181818;stroke-width:1.0;"/><line style="stroke:#181818;stroke-width:1.0;" x1="2933" x2="2943" y1="207.48" y2="197.48"/><line style="stroke:#181818;stroke-width:1.0;" x1="1518" x2="2933" y1="207.48" y2="207.48"/><line style="stroke:#181818;stroke-width:1.0;" x1="2933" x2="2933" y1="207.48" y2="364.97"/><text fill="#000000" font-family="sans-serif" font-size="14" font-weight="bold" lengthAdjust="spacing" textLength="61" x="2196" y="223.4751">Lambda</text></g><!--entity 4f4c8ff4d835a709a59e61796fcbc57b--><g id="elem_4f4c8ff4d835a709a59e61796fcbc57b"><rect fill="#F1F1F1" height="111.4844" rx="2.5" ry="2.5" style="stroke:#181818;stroke-width:0.5;" width="296" x="1078" y="46"/><rect fill="#F1F1F1" height="10" style="stroke:#181818;stroke-width:0.5;" width="15" x="1354" y="51"/><rect fill="#F1F1F1" height="2" style="stroke:#181818;stroke-width:0.5;" width="4" x="1352" y="53"/><rect fill="#F1F1F1" height="2" style="stroke:#181818;stroke-width:0.5;" width="4" x="1352" y="57"/><text fill="#000000" font-family="sans-serif" font-size="14" font-weight="bold" lengthAdjust="spacing" textLength="256" x="1093" y="78.9951">sns_${var.success_topic_name}</text><text fill="#000000" font-family="sans-serif" font-size="14" lengthAdjust="spacing" textLength="4" x="1093" y="95.292">&#160;</text><text fill="#000000" font-family="sans-serif" font-size="14" lengthAdjust="spacing" textLength="246" x="1093" y="111.5889">terraform name: success_sns_topic</text><text fill="#000000" font-family="sans-serif" font-size="14" lengthAdjust="spacing" textLength="206" x="1093" y="127.8857">terraform type: aws_sns_topic</text><text fill="#000000" font-family="sans-serif" font-size="14" lengthAdjust="spacing" textLength="4" x="1093" y="144.1826">&#160;</text></g><!--entity c513472683b111f1c04a54021947e20b--><g id="elem_c513472683b111f1c04a54021947e20b"><rect fill="#F1F1F1" height="111.4844" rx="2.5" ry="2.5" style="stroke:#181818;stroke-width:0.5;" width="480" x="563" y="46"/><rect fill="#F1F1F1" height="10" style="stroke:#181818;stroke-width:0.5;" width="15" x="1023" y="51"/><rect fill="#F1F1F1" height="2" style="stroke:#181818;stroke-width:0.5;" width="4" x="1021" y="53"/><rect fill="#F1F1F1" height="2" style="stroke:#181818;stroke-width:0.5;" width="4" x="1021" y="57"/><text fill="#000000" font-family="sans-serif" font-size="14" font-weight="bold" lengthAdjust="spacing" textLength="440" x="578" y="78.9951">sns_${var.failure_topic_name_for_run_glue_job_lambda}</text><text fill="#000000" font-family="sans-serif" font-size="14" lengthAdjust="spacing" textLength="4" x="578" y="95.292">&#160;</text><text fill="#000000" font-family="sans-serif" font-size="14" lengthAdjust="spacing" textLength="221" x="578" y="111.5889">terraform name: glue_job_failure</text><text fill="#000000" font-family="sans-serif" font-size="14" lengthAdjust="spacing" textLength="206" x="578" y="127.8857">terraform type: aws_sns_topic</text><text fill="#000000" font-family="sans-serif" font-size="14" lengthAdjust="spacing" textLength="4" x="578" y="144.1826">&#160;</text></g><!--entity ff89a5031540ca9196fcbf8a40fee2e7--><g id="elem_ff89a5031540ca9196fcbf8a40fee2e7"><rect fill="#F1F1F1" height="111.4844" rx="2.5" ry="2.5" style="stroke:#181818;stroke-width:0.5;" width="495" x="32.5" y="46"/><rect fill="#F1F1F1" height="10" style="stroke:#181818;stroke-width:0.5;" width="15" x="507.5" y="51"/><rect fill="#F1F1F1" height="2" style="stroke:#181818;stroke-width:0.5;" width="4" x="505.5" y="53"/><rect fill="#F1F1F1" height="2" style="stroke:#181818;stroke-width:0.5;" width="4" x="505.5" y="57"/><text fill="#000000" font-family="sans-serif" font-size="14" font-weight="bold" lengthAdjust="spacing" textLength="455" x="47.5" y="78.9951">sns_${var.success_topic_name_for_run_glue_job_lambda}</text><text fill="#000000" font-family="sans-serif" font-size="14" lengthAdjust="spacing" textLength="4" x="47.5" y="95.292">&#160;</text><text fill="#000000" font-family="sans-serif" font-size="14" lengthAdjust="spacing" textLength="238" x="47.5" y="111.5889">terraform name: glue_job_success</text><text fill="#000000" font-family="sans-serif" font-size="14" lengthAdjust="spacing" textLength="206" x="47.5" y="127.8857">terraform type: aws_sns_topic</text><text fill="#000000" font-family="sans-serif" font-size="14" lengthAdjust="spacing" textLength="4" x="47.5" y="144.1826">&#160;</text></g><!--entity 8ad9ba31c647c2a69dd11359a91bfe7c--><g id="elem_8ad9ba31c647c2a69dd11359a91bfe7c"><rect fill="#F1F1F1" height="111.4844" rx="2.5" ry="2.5" style="stroke:#181818;stroke-width:0.5;" width="281" x="1088.5" y="237.48"/><rect fill="#F1F1F1" height="10" style="stroke:#181818;stroke-width:0.5;" width="15" x="1349.5" y="242.48"/><rect fill="#F1F1F1" height="2" style="stroke:#181818;stroke-width:0.5;" width="4" x="1347.5" y="244.48"/><rect fill="#F1F1F1" height="2" style="stroke:#181818;stroke-width:0.5;" width="4" x="1347.5" y="248.48"/><text fill="#000000" font-family="sans-serif" font-size="14" font-weight="bold" lengthAdjust="spacing" textLength="241" x="1103.5" y="270.4751">sns_${var.failure_topic_name}</text><text fill="#000000" font-family="sans-serif" font-size="14" lengthAdjust="spacing" textLength="4" x="1103.5" y="286.772">&#160;</text><text fill="#000000" font-family="sans-serif" font-size="14" lengthAdjust="spacing" textLength="229" x="1103.5" y="303.0689">terraform name: failure_sns_topic</text><text fill="#000000" font-family="sans-serif" font-size="14" lengthAdjust="spacing" textLength="206" x="1103.5" y="319.3657">terraform type: aws_sns_topic</text><text fill="#000000" font-family="sans-serif" font-size="14" lengthAdjust="spacing" textLength="4" x="1103.5" y="335.6626">&#160;</text></g><!--entity 720c0e357a42de5a42325d8560bf7944--><g id="elem_720c0e357a42de5a42325d8560bf7944"><rect fill="#F1F1F1" height="111.4844" rx="2.5" ry="2.5" style="stroke:#181818;stroke-width:0.5;" width="388" x="840" y="428.97"/><rect fill="#F1F1F1" height="10" style="stroke:#181818;stroke-width:0.5;" width="15" x="1208" y="433.97"/><rect fill="#F1F1F1" height="2" style="stroke:#181818;stroke-width:0.5;" width="4" x="1206" y="435.97"/><rect fill="#F1F1F1" height="2" style="stroke:#181818;stroke-width:0.5;" width="4" x="1206" y="439.97"/><text fill="#000000" font-family="sans-serif" font-size="14" font-weight="bold" lengthAdjust="spacing" textLength="348" x="855" y="461.9651">dynamodb_LambdaRedshiftBatchLoadConfig</text><text fill="#000000" font-family="sans-serif" font-size="14" lengthAdjust="spacing" textLength="4" x="855" y="478.262">&#160;</text><text fill="#000000" font-family="sans-serif" font-size="14" lengthAdjust="spacing" textLength="207" x="855" y="494.5589">terraform name: loader_config</text><text fill="#000000" font-family="sans-serif" font-size="14" lengthAdjust="spacing" textLength="254" x="855" y="510.8557">terraform type: aws_dynamodb_table</text><text fill="#000000" font-family="sans-serif" font-size="14" lengthAdjust="spacing" textLength="4" x="855" y="527.1526">&#160;</text></g><!--entity 6cefdc56a024e8db1c0f37f5f89eac53--><g id="elem_6cefdc56a024e8db1c0f37f5f89eac53"><rect fill="#F1F1F1" height="111.4844" rx="2.5" ry="2.5" style="stroke:#181818;stroke-width:0.5;" width="375" x="839.5" y="600.45"/><rect fill="#F1F1F1" height="10" style="stroke:#181818;stroke-width:0.5;" width="15" x="1194.5" y="605.45"/><rect fill="#F1F1F1" height="2" style="stroke:#181818;stroke-width:0.5;" width="4" x="1192.5" y="607.45"/><rect fill="#F1F1F1" height="2" style="stroke:#181818;stroke-width:0.5;" width="4" x="1192.5" y="611.45"/><text fill="#000000" font-family="sans-serif" font-size="14" font-weight="bold" lengthAdjust="spacing" textLength="335" x="854.5" y="633.4451">dynamodb_LambdaRedshiftProcessedFiles</text><text fill="#000000" font-family="sans-serif" font-size="14" lengthAdjust="spacing" textLength="4" x="854.5" y="649.742">&#160;</text><text fill="#000000" font-family="sans-serif" font-size="14" lengthAdjust="spacing" textLength="223" x="854.5" y="666.0389">terraform name: processed_files</text><text fill="#000000" font-family="sans-serif" font-size="14" lengthAdjust="spacing" textLength="254" x="854.5" y="682.3357">terraform type: aws_dynamodb_table</text><text fill="#000000" font-family="sans-serif" font-size="14" lengthAdjust="spacing" textLength="4" x="854.5" y="698.6326">&#160;</text></g><!--entity b096e0a6fda8958cc66cf3c353927544--><g id="elem_b096e0a6fda8958cc66cf3c353927544"><rect fill="#F1F1F1" height="111.4844" rx="2.5" ry="2.5" style="stroke:#181818;stroke-width:0.5;" width="318" x="933" y="771.94"/><rect fill="#F1F1F1" height="10" style="stroke:#181818;stroke-width:0.5;" width="15" x="1231" y="776.94"/><rect fill="#F1F1F1" height="2" style="stroke:#181818;stroke-width:0.5;" width="4" x="1229" y="778.94"/><rect fill="#F1F1F1" height="2" style="stroke:#181818;stroke-width:0.5;" width="4" x="1229" y="782.94"/><text fill="#000000" font-family="sans-serif" font-size="14" font-weight="bold" lengthAdjust="spacing" textLength="278" x="948" y="804.9351">dynamodb_LambdaRedshiftBatches</text><text fill="#000000" font-family="sans-serif" font-size="14" lengthAdjust="spacing" textLength="4" x="948" y="821.232">&#160;</text><text fill="#000000" font-family="sans-serif" font-size="14" lengthAdjust="spacing" textLength="171" x="948" y="837.5289">terraform name: batches</text><text fill="#000000" font-family="sans-serif" font-size="14" lengthAdjust="spacing" textLength="254" x="948" y="853.8257">terraform type: aws_dynamodb_table</text><text fill="#000000" font-family="sans-serif" font-size="14" lengthAdjust="spacing" textLength="4" x="948" y="870.1226">&#160;</text></g><!--entity 84ad57e5f4ba935db6e559d5dc27d928--><g id="elem_84ad57e5f4ba935db6e559d5dc27d928"><rect fill="#F1F1F1" height="111.4844" rx="2.5" ry="2.5" style="stroke:#181818;stroke-width:0.5;" width="379" x="1430.5" y="46"/><rect fill="#F1F1F1" height="10" style="stroke:#181818;stroke-width:0.5;" width="15" x="1789.5" y="51"/><rect fill="#F1F1F1" height="2" style="stroke:#181818;stroke-width:0.5;" width="4" x="1787.5" y="53"/><rect fill="#F1F1F1" height="2" style="stroke:#181818;stroke-width:0.5;" width="4" x="1787.5" y="57"/><text fill="#000000" font-family="sans-serif" font-size="14" font-weight="bold" lengthAdjust="spacing" textLength="339" x="1445.5" y="78.9951">apigateway_controlshift-webhook-receiver</text><text fill="#000000" font-family="sans-serif" font-size="14" lengthAdjust="spacing" textLength="4" x="1445.5" y="95.292">&#160;</text><text fill="#000000" font-family="sans-serif" font-size="14" lengthAdjust="spacing" textLength="170" x="1445.5" y="111.5889">terraform name: receiver</text><text fill="#000000" font-family="sans-serif" font-size="14" lengthAdjust="spacing" textLength="285" x="1445.5" y="127.8857">terraform type: aws_api_gateway_rest_api</text><text fill="#000000" font-family="sans-serif" font-size="14" lengthAdjust="spacing" textLength="4" x="1445.5" y="144.1826">&#160;</text></g><!--entity f0c635d9844785a8be360cca272679ac--><g id="elem_f0c635d9844785a8be360cca272679ac"><rect fill="#F1F1F1" height="111.4844" rx="2.5" ry="2.5" style="stroke:#181818;stroke-width:0.5;" width="329" x="2270.5" y="46"/><rect fill="#F1F1F1" height="10" style="stroke:#181818;stroke-width:0.5;" width="15" x="2579.5" y="51"/><rect fill="#F1F1F1" height="2" style="stroke:#181818;stroke-width:0.5;" width="4" x="2577.5" y="53"/><rect fill="#F1F1F1" height="2" style="stroke:#181818;stroke-width:0.5;" width="4" x="2577.5" y="57"/><text fill="#000000" font-family="sans-serif" font-size="14" font-weight="bold" lengthAdjust="spacing" textLength="289" x="2285.5" y="78.9951">sqs_controlshift-received-webhooks</text><text fill="#000000" font-family="sans-serif" font-size="14" lengthAdjust="spacing" textLength="4" x="2285.5" y="95.292">&#160;</text><text fill="#000000" font-family="sans-serif" font-size="14" lengthAdjust="spacing" textLength="222" x="2285.5" y="111.5889">terraform name: receiver_queue</text><text fill="#000000" font-family="sans-serif" font-size="14" lengthAdjust="spacing" textLength="217" x="2285.5" y="127.8857">terraform type: aws_sqs_queue</text><text fill="#000000" font-family="sans-serif" font-size="14" lengthAdjust="spacing" textLength="4" x="2285.5" y="144.1826">&#160;</text></g><!--entity 30218f7b0282b4f0a35bcae51f09d458--><g id="elem_30218f7b0282b4f0a35bcae51f09d458"><rect fill="#F1F1F1" height="111.4844" rx="2.5" ry="2.5" style="stroke:#181818;stroke-width:0.5;" width="369" x="1866.5" y="46"/><rect fill="#F1F1F1" height="10" style="stroke:#181818;stroke-width:0.5;" width="15" x="2215.5" y="51"/><rect fill="#F1F1F1" height="2" style="stroke:#181818;stroke-width:0.5;" width="4" x="2213.5" y="53"/><rect fill="#F1F1F1" height="2" style="stroke:#181818;stroke-width:0.5;" width="4" x="2213.5" y="57"/><text fill="#000000" font-family="sans-serif" font-size="14" font-weight="bold" lengthAdjust="spacing" textLength="329" x="1881.5" y="78.9951">sqs_controlshift-received-webhooks-glue</text><text fill="#000000" font-family="sans-serif" font-size="14" lengthAdjust="spacing" textLength="4" x="1881.5" y="95.292">&#160;</text><text fill="#000000" font-family="sans-serif" font-size="14" lengthAdjust="spacing" textLength="259" x="1881.5" y="111.5889">terraform name: receiver_queue_glue</text><text fill="#000000" font-family="sans-serif" font-size="14" lengthAdjust="spacing" textLength="217" x="1881.5" y="127.8857">terraform type: aws_sqs_queue</text><text fill="#000000" font-family="sans-serif" font-size="14" lengthAdjust="spacing" textLength="4" x="1881.5" y="144.1826">&#160;</text></g><!--entity f9e7b6c8e3feb8eb03ccc642602daf0f--><g id="elem_f9e7b6c8e3feb8eb03ccc642602daf0f"><rect fill="#F1F1F1" height="111.4844" rx="2.5" ry="2.5" style="stroke:#181818;stroke-width:0.5;" width="297" x="2629.5" y="237.48"/><rect fill="#F1F1F1" height="10" style="stroke:#181818;stroke-width:0.5;" width="15" x="2906.5" y="242.48"/><rect fill="#F1F1F1" height="2" style="stroke:#181818;stroke-width:0.5;" width="4" x="2904.5" y="244.48"/><rect fill="#F1F1F1" height="2" style="stroke:#181818;stroke-width:0.5;" width="4" x="2904.5" y="248.48"/><text fill="#000000" font-family="sans-serif" font-size="14" font-weight="bold" lengthAdjust="spacing" textLength="257" x="2644.5" y="270.4751">lambda_controlshift-run-glue-job</text><text fill="#000000" font-family="sans-serif" font-size="14" lengthAdjust="spacing" textLength="4" x="2644.5" y="286.772">&#160;</text><text fill="#000000" font-family="sans-serif" font-size="14" lengthAdjust="spacing" textLength="230" x="2644.5" y="303.0689">terraform name: glue_job_lambda</text><text fill="#000000" font-family="sans-serif" font-size="14" lengthAdjust="spacing" textLength="253" x="2644.5" y="319.3657">terraform type: aws_lambda_function</text><text fill="#000000" font-family="sans-serif" font-size="14" lengthAdjust="spacing" textLength="4" x="2644.5" y="335.6626">&#160;</text></g><!--entity 858a2476e5d0160c3d1d951a54625e3c--><g id="elem_858a2476e5d0160c3d1d951a54625e3c"><rect fill="#F1F1F1" height="111.4844" rx="2.5" ry="2.5" style="stroke:#181818;stroke-width:0.5;" width="318" x="2276" y="237.48"/><rect fill="#F1F1F1" height="10" style="stroke:#181818;stroke-width:0.5;" width="15" x="2574" y="242.48"/><rect fill="#F1F1F1" height="2" style="stroke:#181818;stroke-width:0.5;" width="4" x="2572" y="244.48"/><rect fill="#F1F1F1" height="2" style="stroke:#181818;stroke-width:0.5;" width="4" x="2572" y="248.48"/><text fill="#000000" font-family="sans-serif" font-size="14" font-weight="bold" lengthAdjust="spacing" textLength="278" x="2291" y="270.4751">lambda_controlshift-redshift-loader</text><text fill="#000000" font-family="sans-serif" font-size="14" lengthAdjust="spacing" textLength="4" x="2291" y="286.772">&#160;</text><text fill="#000000" font-family="sans-serif" font-size="14" lengthAdjust="spacing" textLength="158" x="2291" y="303.0689">terraform name: loader</text><text fill="#000000" font-family="sans-serif" font-size="14" lengthAdjust="spacing" textLength="253" x="2291" y="319.3657">terraform type: aws_lambda_function</text><text fill="#000000" font-family="sans-serif" font-size="14" lengthAdjust="spacing" textLength="4" x="2291" y="335.6626">&#160;</text></g><!--entity e6a5cccf0d2544181a5c6208bf67f616--><g id="elem_e6a5cccf0d2544181a5c6208bf67f616"><rect fill="#F1F1F1" height="111.4844" rx="2.5" ry="2.5" style="stroke:#181818;stroke-width:0.5;" width="333" x="1907.5" y="237.48"/><rect fill="#F1F1F1" height="10" style="stroke:#181818;stroke-width:0.5;" width="15" x="2220.5" y="242.48"/><rect fill="#F1F1F1" height="2" style="stroke:#181818;stroke-width:0.5;" width="4" x="2218.5" y="244.48"/><rect fill="#F1F1F1" height="2" style="stroke:#181818;stroke-width:0.5;" width="4" x="2218.5" y="248.48"/><text fill="#000000" font-family="sans-serif" font-size="14" font-weight="bold" lengthAdjust="spacing" textLength="293" x="1922.5" y="270.4751">lambda_controlshift-run-glue-crawler</text><text fill="#000000" font-family="sans-serif" font-size="14" lengthAdjust="spacing" textLength="4" x="1922.5" y="286.772">&#160;</text><text fill="#000000" font-family="sans-serif" font-size="14" lengthAdjust="spacing" textLength="258" x="1922.5" y="303.0689">terraform name: glue_crawler_lambda</text><text fill="#000000" font-family="sans-serif" font-size="14" lengthAdjust="spacing" textLength="253" x="1922.5" y="319.3657">terraform type: aws_lambda_function</text><text fill="#000000" font-family="sans-serif" font-size="14" lengthAdjust="spacing" textLength="4" x="1922.5" y="335.6626">&#160;</text></g><!--entity d1c2575f1c18bc7ebe7fd4c658cf7c66--><g id="elem_d1c2575f1c18bc7ebe7fd4c658cf7c66"><rect fill="#F1F1F1" height="111.4844" rx="2.5" ry="2.5" style="stroke:#181818;stroke-width:0.5;" width="339" x="1533.5" y="237.48"/><rect fill="#F1F1F1" height="10" style="stroke:#181818;stroke-width:0.5;" width="15" x="1852.5" y="242.48"/><rect fill="#F1F1F1" height="2" style="stroke:#181818;stroke-width:0.5;" width="4" x="1850.5" y="244.48"/><rect fill="#F1F1F1" height="2" style="stroke:#181818;stroke-width:0.5;" width="4" x="1850.5" y="248.48"/><text fill="#000000" font-family="sans-serif" font-size="14" font-weight="bold" lengthAdjust="spacing" textLength="299" x="1548.5" y="270.4751">lambda_controlshift-webhook-handler</text><text fill="#000000" font-family="sans-serif" font-size="14" lengthAdjust="spacing" textLength="4" x="1548.5" y="286.772">&#160;</text><text fill="#000000" font-family="sans-serif" font-size="14" lengthAdjust="spacing" textLength="227" x="1548.5" y="303.0689">terraform name: receiver_lambda</text><text fill="#000000" font-family="sans-serif" font-size="14" lengthAdjust="spacing" textLength="253" x="1548.5" y="319.3657">terraform type: aws_lambda_function</text><text fill="#000000" font-family="sans-serif" font-size="14" lengthAdjust="spacing" textLength="4" x="1548.5" y="335.6626">&#160;</text></g><!--link 4f4c8ff4d835a709a59e61796fcbc57b to 6cefdc56a024e8db1c0f37f5f89eac53--><g id="link_4f4c8ff4d835a709a59e61796fcbc57b_6cefdc56a024e8db1c0f37f5f89eac53"><path codeLine="110" d="M1121.21,157.9 C1101.58,166.74 1080.95,175.08 1061,181.48 C1041.66,187.69 1034.04,180.15 1016,189.48 C908.4,245.15 868.73,269.19 822,380.97 C794.66,446.36 786.15,479.3 822,540.45 C836.28,564.82 857.84,584.4 881.69,600 " fill="none" id="4f4c8ff4d835a709a59e61796fcbc57b-6cefdc56a024e8db1c0f37f5f89eac53" style="stroke:#181818;stroke-width:1.0;"/></g><!--link 4f4c8ff4d835a709a59e61796fcbc57b to 8ad9ba31c647c2a69dd11359a91bfe7c--><g id="link_4f4c8ff4d835a709a59e61796fcbc57b_8ad9ba31c647c2a69dd11359a91bfe7c"><path codeLine="111" d="M1226.87,157.8 C1227.27,182.71 1227.73,212.1 1228.13,237.03 " fill="none" id="4f4c8ff4d835a709a59e61796fcbc57b-8ad9ba31c647c2a69dd11359a91bfe7c" style="stroke:#181818;stroke-width:1.0;"/></g><!--link 4f4c8ff4d835a709a59e61796fcbc57b to b096e0a6fda8958cc66cf3c353927544--><g id="link_4f4c8ff4d835a709a59e61796fcbc57b_b096e0a6fda8958cc66cf3c353927544"><path codeLine="112" d="M1359.26,157.69 C1370.17,166.82 1379.76,177.35 1387,189.48 C1428.81,259.5 1397.11,292.05 1387,372.97 C1367.74,527.19 1396.12,589.02 1301,711.94 C1282.38,736 1257.22,755.7 1230.82,771.56 " fill="none" id="4f4c8ff4d835a709a59e61796fcbc57b-b096e0a6fda8958cc66cf3c353927544" style="stroke:#181818;stroke-width:1.0;"/></g><!--link 4f4c8ff4d835a709a59e61796fcbc57b to 720c0e357a42de5a42325d8560bf7944--><g id="link_4f4c8ff4d835a709a59e61796fcbc57b_720c0e357a42de5a42325d8560bf7944"><path codeLine="113" d="M1100.95,157.75 C1089.45,166.93 1079.1,177.46 1071,189.48 C1022.68,261.22 1021.84,365.51 1026.98,428.74 " fill="none" id="4f4c8ff4d835a709a59e61796fcbc57b-720c0e357a42de5a42325d8560bf7944" style="stroke:#181818;stroke-width:1.0;"/></g><!--link 8ad9ba31c647c2a69dd11359a91bfe7c to 6cefdc56a024e8db1c0f37f5f89eac53--><g id="link_8ad9ba31c647c2a69dd11359a91bfe7c_6cefdc56a024e8db1c0f37f5f89eac53"><path codeLine="114" d="M1249.97,349.38 C1266.36,402.31 1281.05,482.53 1246,540.45 C1231.17,564.97 1209.18,584.5 1184.78,599.98 " fill="none" id="8ad9ba31c647c2a69dd11359a91bfe7c-6cefdc56a024e8db1c0f37f5f89eac53" style="stroke:#181818;stroke-width:1.0;"/></g><!--link 8ad9ba31c647c2a69dd11359a91bfe7c to b096e0a6fda8958cc66cf3c353927544--><g id="link_8ad9ba31c647c2a69dd11359a91bfe7c_b096e0a6fda8958cc66cf3c353927544"><path codeLine="115" d="M1268.56,349.07 C1274.1,359.24 1278.94,370.09 1282,380.97 C1322.03,523.27 1328.14,587.07 1249,711.94 C1234.36,735.03 1213.27,755 1191.27,771.51 " fill="none" id="8ad9ba31c647c2a69dd11359a91bfe7c-b096e0a6fda8958cc66cf3c353927544" style="stroke:#181818;stroke-width:1.0;"/></g><!--link 8ad9ba31c647c2a69dd11359a91bfe7c to 720c0e357a42de5a42325d8560bf7944--><g id="link_8ad9ba31c647c2a69dd11359a91bfe7c_720c0e357a42de5a42325d8560bf7944"><path codeLine="116" d="M1172.34,349.29 C1146.7,374.2 1116.46,403.58 1090.81,428.51 " fill="none" id="8ad9ba31c647c2a69dd11359a91bfe7c-720c0e357a42de5a42325d8560bf7944" style="stroke:#181818;stroke-width:1.0;"/></g><!--link 720c0e357a42de5a42325d8560bf7944 to 6cefdc56a024e8db1c0f37f5f89eac53--><g id="link_720c0e357a42de5a42325d8560bf7944_6cefdc56a024e8db1c0f37f5f89eac53"><path codeLine="117" d="M1031.73,540.74 C1030.94,559.78 1030.06,581.11 1029.27,600.15 " fill="none" id="720c0e357a42de5a42325d8560bf7944-6cefdc56a024e8db1c0f37f5f89eac53" style="stroke:#181818;stroke-width:1.0;"/></g><!--link 720c0e357a42de5a42325d8560bf7944 to b096e0a6fda8958cc66cf3c353927544--><g id="link_720c0e357a42de5a42325d8560bf7944_b096e0a6fda8958cc66cf3c353927544"><path codeLine="118" d="M1173.19,540.91 C1196.72,556.58 1218.01,576.18 1232,600.45 C1256.74,643.38 1253.2,667.15 1232,711.94 C1221.04,735.09 1202.87,755.12 1183.19,771.69 " fill="none" id="720c0e357a42de5a42325d8560bf7944-b096e0a6fda8958cc66cf3c353927544" style="stroke:#181818;stroke-width:1.0;"/></g><!--link 6cefdc56a024e8db1c0f37f5f89eac53 to b096e0a6fda8958cc66cf3c353927544--><g id="link_6cefdc56a024e8db1c0f37f5f89eac53_b096e0a6fda8958cc66cf3c353927544"><path codeLine="119" d="M1048.1,712.22 C1055.41,731.26 1063.59,752.59 1070.89,771.64 " fill="none" id="6cefdc56a024e8db1c0f37f5f89eac53-b096e0a6fda8958cc66cf3c353927544" style="stroke:#181818;stroke-width:1.0;"/></g><!--link 84ad57e5f4ba935db6e559d5dc27d928 to d1c2575f1c18bc7ebe7fd4c658cf7c66--><g id="link_84ad57e5f4ba935db6e559d5dc27d928_d1c2575f1c18bc7ebe7fd4c658cf7c66"><path codeLine="120" d="M1644.12,157.8 C1655.03,182.71 1667.9,212.1 1678.82,237.03 " fill="none" id="84ad57e5f4ba935db6e559d5dc27d928-d1c2575f1c18bc7ebe7fd4c658cf7c66" style="stroke:#181818;stroke-width:1.0;"/></g><!--link f0c635d9844785a8be360cca272679ac to d1c2575f1c18bc7ebe7fd4c658cf7c66--><g id="link_f0c635d9844785a8be360cca272679ac_d1c2575f1c18bc7ebe7fd4c658cf7c66"><path codeLine="121" d="M2326.11,157.9 C2302.55,167.53 2277.38,176.15 2253,181.48 C2174.17,198.71 1967.93,168.57 1890,189.48 C1852.79,199.47 1814.95,218.3 1783.14,237.14 " fill="none" id="f0c635d9844785a8be360cca272679ac-d1c2575f1c18bc7ebe7fd4c658cf7c66" style="stroke:#181818;stroke-width:1.0;"/></g><!--link f0c635d9844785a8be360cca272679ac to 858a2476e5d0160c3d1d951a54625e3c--><g id="link_f0c635d9844785a8be360cca272679ac_858a2476e5d0160c3d1d951a54625e3c"><path codeLine="122" d="M2435,157.8 C2435,182.71 2435,212.1 2435,237.03 " fill="none" id="f0c635d9844785a8be360cca272679ac-858a2476e5d0160c3d1d951a54625e3c" style="stroke:#181818;stroke-width:1.0;"/></g><!--link 30218f7b0282b4f0a35bcae51f09d458 to d1c2575f1c18bc7ebe7fd4c658cf7c66--><g id="link_30218f7b0282b4f0a35bcae51f09d458_d1c2575f1c18bc7ebe7fd4c658cf7c66"><path codeLine="123" d="M1948.3,157.91 C1928.92,168.37 1908.83,179.24 1890,189.48 C1861.69,204.88 1831.03,221.68 1802.88,237.15 " fill="none" id="30218f7b0282b4f0a35bcae51f09d458-d1c2575f1c18bc7ebe7fd4c658cf7c66" style="stroke:#181818;stroke-width:1.0;"/></g><!--link 30218f7b0282b4f0a35bcae51f09d458 to e6a5cccf0d2544181a5c6208bf67f616--><g id="link_30218f7b0282b4f0a35bcae51f09d458_e6a5cccf0d2544181a5c6208bf67f616"><path codeLine="124" d="M2057.68,157.8 C2060.71,182.71 2064.27,212.1 2067.3,237.03 " fill="none" id="30218f7b0282b4f0a35bcae51f09d458-e6a5cccf0d2544181a5c6208bf67f616" style="stroke:#181818;stroke-width:1.0;"/></g><!--SRC=[hLRBRkD64BphAuH5JWOKpFkHMnx8QGz1zXW4H4zFjws49csIMiTOxBzdH4cERSWUQf6B872QnQgQdkg1jkqVRhV_RBlhLTTdMd_ur8qVrZ2khG56uw975Ze7qeGHX4tIwI2SKkilgpNsjtTzHzsqDcmmC9iSj0Kl8jX8Jlhe61DQdzP_hAwkncvilllo6ORlnnqYZMCpzNTRR3gufQzNLwlLHCC0t0-tw_sZ7zQdilsBS-cpYkdnhbJ0m_FLrP-h_oYXbTfuvO9EKagMA0nO8vICnfCIhoanRDlTGCyeDUKxpR3hckjsHyrVVMfQk4qPpb9zgZdYNCAKEHJ3X9Q57aAKisiSm0WcKkIhvdqRqoFE9Km3v9X0ItJ6em8NSvPIsrX89oQFLK_FCZgLNR3DNu_T-ijZWUXpcblMKKhUA2syGXkDPgjGIkKDPozJsV4NBUkLG47QUZ0gaos_MjaSh1E9VJHcrfAF-Ct7sT3VAOytMvv-WWblFlQGV-uxtbwV4zMMLHeQd0lE2dh2dY2rzD9eXyGPhGEX38MSIlUozcnBfn2WrU-H-stez_jA-TTjI-CvRdUdYeRt9HUpIo8w4k0uGuWs83g7h55R7PMt2wmxJoiTbXRIERN0ZtVRQvZe0Hxd9YZjMGuJ2oY7tNjfqMHsqKXZTDJUligjO21RJvPDWgXjJewiZTbcL3v75MObyFI5_NPEGz_EIZOFb6xw_k_DG4ZRppISqtHQEokg03Sdv876QV_WkRHFzuSifZqznLe7pEMlavQo2e9P9EMzpoyriK1NfCHWZ0yMGYBj12Ae4eO-ml6GteylnHo9vfEgyJqrpVsETczaN04-hBve6Ls2Dx1FGWMLJDaURHC2MSaYPcF3GbARVNhLcSr1MATtyldGeRFLPKZu31fj4WQXn446IILNeYhndCAh3E58FZaiqv4f1Kf2OpaCHZcXCh3WMTKXYry9stMpb4q9udT3-l3oMIb7NDvrE6txxbLIsm3A-DBEMSYo_JhB7AqiXy8fInhVPdOyfvj3WBqTRPTp8WUs-CCYgn8ICXGsw9G8YPrd9rtTBHpWeJrFQdRikFxDhcM9odfRBWio9FIKo7Csw4h6iIyfzoR3KnJSG9VRzvFWGd9VLzMxrIPlgWDZ6KfjlYz3gOs7PIYr-RogNaOM-R88fQfe4KfLKVLAiaZH8fIgekeDP9aljVcwHwcTkbLrelr_ABNSN5K7sI8kYr1gUVal]--></g></svg>